<?xml version="1.0" standalone="no"?>
<!DOCTYPE svg PUBLIC "-//W3C//DTD SVG 20010904//EN"
 "http://www.w3.org/TR/2001/REC-SVG-20010904/DTD/svg10.dtd">
<svg version="1.0" xmlns="http://www.w3.org/2000/svg"
 width="32.000000pt" height="32.000000pt" viewBox="0 0 32.000000 32.000000"
 preserveAspectRatio="xMidYMid meet">
<metadata>
Created by potrace 1.16, written by Peter Selinger 2001-2019
</metadata>
<g transform="translate(0.000000,32.000000) scale(0.100000,-0.100000)"
fill="#000000" stroke="none">
<path d="M0 160 l0 -160 160 0 160 0 0 160 0 160 -160 0 -160 0 0 -160z m190
58 c0 7 15 12 35 12 19 0 35 -3 35 -7 0 -5 -11 -26 -25 -48 -31 -50 -31 -53 2
-57 14 -2 28 -9 31 -15 3 -10 -13 -13 -57 -13 -57 0 -61 2 -76 30 -9 17 -18
30 -20 30 -2 0 -11 -13 -20 -30 -9 -16 -22 -30 -30 -30 -19 0 -20 -3 17 75
l31 68 27 -54 28 -53 20 34 c25 39 23 43 -18 42 -18 0 -30 4 -30 12 0 23 13
26 32 9 11 -9 18 -11 18 -5z m-15 -153 c0 -5 -10 -11 -22 -13 -16 -2 -23 2
-23 13 0 11 7 15 23 13 12 -2 22 -7 22 -13z m83 -1 c-10 -9 -59 -11 -64 -2 -4
6 -2 8 4 4 6 -3 13 -2 16 3 3 5 15 7 26 4 12 -3 19 -7 18 -9z m-158 -4 c0 -5
-6 -10 -14 -10 -8 0 -18 5 -21 10 -3 6 3 10 14 10 12 0 21 -4 21 -10z"/>
</g>
</svg>
